<svg width="111" height="276" viewBox="0 0 111 276" fill="none" xmlns="http://www.w3.org/2000/svg">
<path d="M100.576 274.906C101.077 275.14 101.672 274.924 101.906 274.424L105.719 266.271C105.953 265.771 105.737 265.176 105.237 264.942C104.737 264.708 104.141 264.924 103.907 265.424L100.518 272.671L93.2714 269.281C92.7711 269.047 92.1759 269.263 91.9419 269.763C91.7079 270.263 91.9238 270.859 92.424 271.093L100.576 274.906ZM1.05991 1.34091L2.70991 5.89091L4.59009 5.20909L2.94009 0.659087L1.05991 1.34091ZM6.0099 14.9909L9.3099 24.0909L11.1901 23.4091L7.89009 14.3091L6.0099 14.9909ZM12.6099 33.1909L15.9099 42.2909L17.7901 41.6091L14.4901 32.5091L12.6099 33.1909ZM19.2099 51.3909L22.5099 60.4909L24.3901 59.8091L21.0901 50.7091L19.2099 51.3909ZM25.8099 69.5909L29.1099 78.6909L30.9901 78.0091L27.6901 68.9091L25.8099 69.5909ZM32.4099 87.7909L35.7099 96.8909L37.5901 96.2091L34.2901 87.1091L32.4099 87.7909ZM39.0099 105.991L42.3099 115.091L44.1901 114.409L40.8901 105.309L39.0099 105.991ZM45.6099 124.191L48.9099 133.291L50.7901 132.609L47.4901 123.509L45.6099 124.191ZM52.2099 142.391L55.5099 151.491L57.3901 150.809L54.0901 141.709L52.2099 142.391ZM58.8099 160.591L62.1099 169.691L63.9901 169.009L60.6901 159.909L58.8099 160.591ZM65.4099 178.791L68.7099 187.891L70.5901 187.209L67.2901 178.109L65.4099 178.791ZM72.0099 196.991L75.3099 206.091L77.1901 205.409L73.8901 196.309L72.0099 196.991ZM78.6099 215.191L81.9099 224.291L83.7901 223.609L80.4901 214.509L78.6099 215.191ZM85.2099 233.391L88.5099 242.491L90.3901 241.809L87.0901 232.709L85.2099 233.391ZM91.8099 251.591L95.1099 260.691L96.9901 260.009L93.6901 250.909L91.8099 251.591ZM98.4099 269.791L100.06 274.341L101.94 273.659L100.29 269.109L98.4099 269.791ZM100.153 275.812C101.153 276.28 102.344 275.848 102.812 274.847L110.438 258.543C110.906 257.542 110.474 256.352 109.474 255.884C108.473 255.416 107.283 255.848 106.815 256.848L100.036 271.341L85.5428 264.562C84.5423 264.094 83.3518 264.526 82.8838 265.526C82.4158 266.527 82.8475 267.717 83.848 268.185L100.153 275.812ZM0.119811 1.68183L1.76981 6.23183L5.53019 4.86817L3.88019 0.318173L0.119811 1.68183ZM5.06981 15.3318L8.36981 24.4318L12.1302 23.0682L8.83019 13.9682L5.06981 15.3318ZM11.6698 33.5318L14.9698 42.6318L18.7302 41.2682L15.4302 32.1682L11.6698 33.5318ZM18.2698 51.7318L21.5698 60.8318L25.3302 59.4682L22.0302 50.3682L18.2698 51.7318ZM24.8698 69.9318L28.1698 79.0318L31.9302 77.6682L28.6302 68.5682L24.8698 69.9318ZM31.4698 88.1318L34.7698 97.2318L38.5302 95.8682L35.2302 86.7682L31.4698 88.1318ZM38.0698 106.332L41.3698 115.432L45.1302 114.068L41.8302 104.968L38.0698 106.332ZM44.6698 124.532L47.9698 133.632L51.7302 132.268L48.4302 123.168L44.6698 124.532ZM51.2698 142.732L54.5698 151.832L58.3302 150.468L55.0302 141.368L51.2698 142.732ZM57.8698 160.932L61.1698 170.032L64.9302 168.668L61.6302 159.568L57.8698 160.932ZM64.4698 179.132L67.7698 188.232L71.5302 186.868L68.2302 177.768L64.4698 179.132ZM71.0698 197.332L74.3698 206.432L78.1302 205.068L74.8302 195.968L71.0698 197.332ZM77.6698 215.532L80.9698 224.632L84.7302 223.268L81.4302 214.168L77.6698 215.532ZM84.2698 233.732L87.5698 242.832L91.3302 241.468L88.0302 232.368L84.2698 233.732ZM90.8698 251.932L94.1698 261.032L97.9302 259.668L94.6302 250.568L90.8698 251.932ZM97.4698 270.132L99.1198 274.682L102.88 273.318L101.23 268.768L97.4698 270.132Z" fill="#EDD2CB" fill-opacity="0.66"/>
</svg>
