<svg width="76" height="234" viewBox="0 0 76 234" fill="none" xmlns="http://www.w3.org/2000/svg">
<path d="M64.5039 232.868C64.9834 233.142 65.5942 232.976 65.8682 232.496L70.3335 224.682C70.6075 224.202 70.4409 223.592 69.9614 223.318C69.4819 223.044 68.871 223.21 68.597 223.69L64.6279 230.636L57.6819 226.667C57.2024 226.392 56.5916 226.559 56.3176 227.039C56.0436 227.518 56.2102 228.129 56.6897 228.403L64.5039 232.868ZM1.03524 1.26312L2.34774 6.07562L4.27726 5.54938L2.96476 0.736883L1.03524 1.26312ZM4.97274 15.7006L7.59774 25.3256L9.52726 24.7994L6.90226 15.1744L4.97274 15.7006ZM10.2227 34.9506L12.8477 44.5756L14.7773 44.0494L12.1523 34.4244L10.2227 34.9506ZM15.4727 54.2006L18.0977 63.8256L20.0273 63.2994L17.4023 53.6744L15.4727 54.2006ZM20.7227 73.4506L23.3477 83.0756L25.2773 82.5494L22.6523 72.9244L20.7227 73.4506ZM25.9727 92.7006L28.5977 102.326L30.5273 101.799L27.9023 92.1744L25.9727 92.7006ZM31.2227 111.951L33.8477 121.576L35.7773 121.049L33.1523 111.424L31.2227 111.951ZM36.4727 131.201L39.0977 140.826L41.0273 140.299L38.4023 130.674L36.4727 131.201ZM41.7227 150.451L44.3477 160.076L46.2773 159.549L43.6523 149.924L41.7227 150.451ZM46.9727 169.701L49.5977 179.326L51.5273 178.799L48.9023 169.174L46.9727 169.701ZM52.2227 188.951L54.8477 198.576L56.7773 198.049L54.1523 188.424L52.2227 188.951ZM57.4727 208.201L60.0977 217.826L62.0273 217.299L59.4023 207.674L57.4727 208.201ZM62.7227 227.451L64.0352 232.263L65.9648 231.737L64.6523 226.924L62.7227 227.451ZM64.0077 233.736C64.9668 234.285 66.1885 233.951 66.7365 232.992L75.667 217.364C76.215 216.405 75.8818 215.183 74.9228 214.635C73.9637 214.087 72.742 214.42 72.194 215.379L64.2558 229.271L50.3639 221.333C49.4049 220.785 48.1832 221.118 47.6351 222.077C47.0871 223.036 47.4203 224.258 48.3793 224.806L64.0077 233.736ZM0.0704724 1.52623L1.38297 6.33873L5.24203 5.28627L3.92953 0.473765L0.0704724 1.52623ZM4.00797 15.9637L6.63297 25.5887L10.492 24.5363L7.86703 14.9113L4.00797 15.9637ZM9.25797 35.2137L11.883 44.8387L15.742 43.7863L13.117 34.1613L9.25797 35.2137ZM14.508 54.4637L17.133 64.0887L20.992 63.0363L18.367 53.4113L14.508 54.4637ZM19.758 73.7137L22.383 83.3387L26.242 82.2863L23.617 72.6613L19.758 73.7137ZM25.008 92.9637L27.633 102.589L31.492 101.536L28.867 91.9113L25.008 92.9637ZM30.258 112.214L32.883 121.839L36.742 120.786L34.117 111.161L30.258 112.214ZM35.508 131.464L38.133 141.089L41.992 140.036L39.367 130.411L35.508 131.464ZM40.758 150.714L43.383 160.339L47.242 159.286L44.617 149.661L40.758 150.714ZM46.008 169.964L48.633 179.589L52.492 178.536L49.867 168.911L46.008 169.964ZM51.258 189.214L53.883 198.839L57.742 197.786L55.117 188.161L51.258 189.214ZM56.508 208.464L59.133 218.089L62.992 217.036L60.367 207.411L56.508 208.464ZM61.758 227.714L63.0705 232.526L66.9295 231.474L65.617 226.661L61.758 227.714Z" fill="#EDD2CB" fill-opacity="0.66"/>
</svg>
