<svg width="79" height="221" viewBox="0 0 79 221" fill="none" xmlns="http://www.w3.org/2000/svg">
<path d="M10.1183 219.472C10.3789 219.959 10.9849 220.142 11.4719 219.882L19.4069 215.635C19.8938 215.374 20.0773 214.768 19.8166 214.281C19.556 213.794 18.95 213.611 18.4631 213.871L11.4098 217.646L7.63478 210.593C7.37416 210.106 6.76816 209.923 6.28123 210.183C5.7943 210.444 5.61083 211.05 5.87145 211.537L10.1183 219.472ZM76.0429 0.710236L74.5429 5.66478L76.4571 6.24431L77.9571 1.28976L76.0429 0.710236ZM71.5429 15.5739L68.5429 25.483L70.4571 26.0625L73.4571 16.1534L71.5429 15.5739ZM65.5429 35.3921L62.5429 45.3011L64.4571 45.8807L67.4571 35.9716L65.5429 35.3921ZM59.5429 55.2102L56.5429 65.1193L58.4571 65.6989L61.4571 55.7898L59.5429 55.2102ZM53.5429 75.0284L50.5429 84.9375L52.4571 85.517L55.4571 75.6079L53.5429 75.0284ZM47.5429 94.8466L44.5429 104.756L46.4571 105.335L49.4571 95.4261L47.5429 94.8466ZM41.5429 114.665L38.5429 124.574L40.4571 125.153L43.4571 115.244L41.5429 114.665ZM35.5429 134.483L32.5429 144.392L34.4571 144.972L37.4571 135.062L35.5429 134.483ZM29.5429 154.301L26.5429 164.21L28.4571 164.79L31.4571 154.881L29.5429 154.301ZM23.5429 174.119L20.5429 184.028L22.4571 184.608L25.4571 174.699L23.5429 174.119ZM17.5429 193.938L14.5429 203.847L16.4571 204.426L19.4571 194.517L17.5429 193.938ZM11.5429 213.756L10.0429 218.71L11.9571 219.29L13.4571 214.335L11.5429 213.756ZM9.23667 219.944C9.75789 220.918 10.9699 221.285 11.9438 220.763L27.8137 212.27C28.7876 211.748 29.1545 210.536 28.6333 209.562C28.1121 208.589 26.9001 208.222 25.9262 208.743L11.8196 216.293L4.26955 202.186C3.74833 201.212 2.53632 200.845 1.56246 201.367C0.588603 201.888 0.221668 203.1 0.742888 204.074L9.23667 219.944ZM75.0858 0.420473L73.5858 5.37502L77.4142 6.53407L78.9142 1.57953L75.0858 0.420473ZM70.5858 15.2841L67.5858 25.1932L71.4142 26.3523L74.4142 16.4432L70.5858 15.2841ZM64.5858 35.1023L61.5858 45.0114L65.4142 46.1704L68.4142 36.2613L64.5858 35.1023ZM58.5858 54.9205L55.5858 64.8296L59.4142 65.9886L62.4142 56.0795L58.5858 54.9205ZM52.5858 74.7387L49.5858 84.6477L53.4142 85.8068L56.4142 75.8977L52.5858 74.7387ZM46.5858 94.5568L43.5858 104.466L47.4142 105.625L50.4142 95.7159L46.5858 94.5568ZM40.5858 114.375L37.5858 124.284L41.4142 125.443L44.4142 115.534L40.5858 114.375ZM34.5858 134.193L31.5858 144.102L35.4142 145.261L38.4142 135.352L34.5858 134.193ZM28.5858 154.011L25.5858 163.92L29.4142 165.08L32.4142 155.17L28.5858 154.011ZM22.5858 173.83L19.5858 183.739L23.4142 184.898L26.4142 174.989L22.5858 173.83ZM16.5858 193.648L13.5858 203.557L17.4142 204.716L20.4142 194.807L16.5858 193.648ZM10.5858 213.466L9.0858 218.42L12.9142 219.58L14.4142 214.625L10.5858 213.466Z" fill="#EDD2CB" fill-opacity="0.66"/>
</svg>
